<svg viewBox="-125 -80 250 160" fill="none" xmlns="http://www.w3.org/2000/svg">
  <rect x="-125" y="-80" width="250" height="160" rx="16" fill="#000"/>
  <polygon fill="#fff" points="102.69756,77.17041 124.99998,77.17041 63.1392,-29.97693 45.19286,1.10681 -0.0002,-77.17041 -45.19334,1.10681 -63.13921,-29.97693 -124.99998,77.17041 -102.69753,77.17041 -102.69753,72.12573 -116.26201,72.12573 -63.13921,-19.88586 -48.10616,6.15137 -89.10826,77.17041 -54.07253,77.17041 -54.07253,72.12573 -80.37025,72.12573 -45.19334,11.19702 -10.01595,72.12573 -36.31413,72.12573 -36.31413,77.17041 -1.2784,77.17041 -42.2805,6.15137 -0.0002,-67.0802 42.28105,6.15234 1.27745,77.17041 36.31419,77.17041 36.31419,72.12573 10.01598,72.12573 45.19286,11.19702 80.3698,72.12573 54.07256,72.12573 54.07256,77.17041 89.10924,77.17041 48.1057,6.15137 63.1392,-19.88586 116.26152,72.12573 102.69756,72.12573" transform="scale(0.85)"/>
</svg>
